:SAMPLES-PER-SECOND 30
:FRAME-RANGE 1-2009
:FULLY-SPECIFIED
:DEGREES
1319
root  -27.1218 38.9109 -7.39584 1.51602 -3.43985 0.603302
RightUpLeg  -22.4288 -4.79121 -6.13571
RightLeg  0.332171 -9.28175 0.662992
RightFoot  1.21553 -1.43432 13.0605
RightToes  4.71047e-010 1.2921e-014 -6.02303e-014
Spine  6.44901 -4.11514 -6.31938
Spine1  2.00878 -4.65227 1.67917
HEad  7.79884 6.19529 -6.31886
LeftShoulder1  2.01843 -2.2583 -28.9686
LeftArm  34.0612 -13.2307 -40.5798
LeftForeArm  -2.45671 -15.7664 -11.9384
LeftHand  0.267023 -1.26521 -4.55941
RightShoulder  0.566674 -1.11323 17.2534
RightArm  -13.2602 -4.33546 -3.97507
RightForeArm  49.681 -3.94155 9.59502
RightHand  0.709304 4.80936 7.7528
LeftUpLeg  3.25895 8.91495 -3.32596
LeftLeg  12.0058 12.1422 -2.13338
LeftFoot  -18.993 0.0744365 -0.590536
LeftToes  2.15783e-011 -7.56106e-012 -8.20802e-012
1320
root  -27.2589 38.6373 -6.18738 0.842097 -1.09702 1.70938
RightUpLeg  -22.0345 -5.32266 -7.29512
RightLeg  1.50638 -10.9292 -0.453278
RightFoot  -0.305072 -1.00499 10.3544
RightToes  4.71047e-010 1.2921e-014 -6.02303e-014
Spine  6.28319 -4.68648 -4.22391
Spine1  2.5591 -4.79943 -0.601228
HEad  7.73634 3.34149 -7.184
LeftShoulder1  2.04365 -2.29851 -29.1647
LeftArm  37.8868 -11.2752 -39.2351
LeftForeArm  -4.98024 -18.335 -9.59686
LeftHand  0.288265 -1.34 -4.86859
RightShoulder  -0.0664452 -3.80787 13.3634
RightArm  -8.8312 -6.93029 -3.40216
RightForeArm  48.4862 0.254214 10.9621
RightHand  0.73412 4.64385 8.17681
LeftUpLeg  5.86433 8.45826 -3.93199
LeftLeg  12.4117 10.2593 -1.92417
LeftFoot  -20.9445 0.0119474 -1.35358
LeftToes  2.15783e-011 -7.56106e-012 -8.20802e-012
1321
root  -27.3972 38.4585 -4.90129 0.376383 1.49353 1.95609
RightUpLeg  -22.1546 -6.80026 -7.76181
RightLeg  6.62363 -14.5154 -1.95325
RightFoot  2.57517 -0.765667 6.41105
RightToes  4.71047e-010 1.2921e-014 -6.02303e-014
Spine  6.01172 -5.35063 -1.67581
Spine1  2.93987 -5.24512 -1.89872
HEad  8.64309 -0.250705 -6.99755
LeftShoulder1  2.02789 -2.12669 -29.9718
LeftArm  40.1108 -8.17978 -36.9806
LeftForeArm  -7.88087 -20.8744 -7.13624
LeftHand  0.270786 -1.02831 -4.82188
RightShoulder  -0.472289 -6.1593 10.3029
RightArm  -3.66425 -8.23034 -2.68381
RightForeArm  46.3036 4.33801 11.8263
RightHand  0.799028 4.34059 9.22093
LeftUpLeg  8.84089 7.93227 -3.69077
LeftLeg  11.7427 8.34734 -1.42871
LeftFoot  -22.0736 -0.0480102 -1.92106
LeftToes  2.15783e-011 -7.56106e-012 -8.20802e-012
1322
root  -27.5565 38.1624 -3.55563 0.196255 3.72592 2.01407
RightUpLeg  -22.7715 -10.5985 -8.05639
RightLeg  11.7892 -12.6111 -2.83286
RightFoot  9.95067 -1.48696 8.26308
RightToes  4.71047e-010 1.2921e-014 -6.02303e-014
Spine  5.91691 -5.7236 0.501713
Spine1  2.21761 -5.40429 -2.71455
HEad  9.58526 -4.48085 -7.16946
LeftShoulder1  1.97509 -1.77117 -31.4088
LeftArm  38.4343 -4.90538 -34.6313
LeftForeArm  -7.79845 -21.5959 -6.44723
LeftHand  0.2349 -1.06899 -4.1395
RightShoulder  -0.70786 -7.80342 8.88056
RightArm  4.66193 -9.22011 -2.30908
RightForeArm  40.2271 9.06545 11.5212
RightHand  0.932767 4.08366 11.1122
LeftUpLeg  11.0186 7.73472 -3.13981
LeftLeg  12.3233 6.32047 -0.644988
LeftFoot  -23.739 -0.133773 -2.54338
LeftToes  2.15783e-011 -7.56106e-012 -8.20802e-012
1323
root  -27.7138 37.9257 -2.18718 -0.0706721 4.07932 1.07364
RightUpLeg  -24.7479 -13.8792 -6.23205
RightLeg  19.9182 -8.41918 -3.57275
RightFoot  6.27709 -0.9235 6.23119
RightToes  4.71047e-010 1.2921e-014 -6.02303e-014
Spine  5.91436 -5.34783 3.35207
Spine1  2.06208 -4.90021 -2.82315
HEad  9.33224 -8.31351 -7.49753
LeftShoulder1  1.83711 -1.26488 -32.4867
LeftArm  34.3336 -0.900017 -33.1865
LeftForeArm  -7.47427 -21.7032 -6.29941
LeftHand  0.200894 -1.0792 -3.51893
RightShoulder  -0.715024 -7.71391 9.45274
RightArm  8.9314 -9.76796 -2.19993
RightForeArm  37.0388 11.6519 10.6048
RightHand  0.931177 3.73776 11.5377
LeftUpLeg  13.4023 8.26309 -1.46828
LeftLeg  12.5951 5.57352 0.0337782
LeftFoot  -24.779 -0.242714 -3.32265
LeftToes  2.15783e-011 -7.56106e-012 -8.20802e-012
1324
root  -27.9579 37.8298 -0.913217 0.144859 3.68066 -0.0378113
RightUpLeg  -25.1436 -15.0883 -4.5854
RightLeg  23.9815 -6.7152 -3.47281
RightFoot  2.6785 -0.752669 6.26373
RightToes  4.71047e-010 1.2921e-014 -6.02303e-014
Spine  5.73896 -4.60278 4.40002
Spine1  2.08698 -4.4843 -0.970607
HEad  8.75589 -11.1791 -7.14965
LeftShoulder1  1.6949 -0.853022 -32.8576
LeftArm  28.227 3.71419 -32.7898
LeftForeArm  -6.09427 -20.5849 -7.10984
LeftHand  0.151522 -0.749302 -2.80626
RightShoulder  -0.458803 -5.8306 12.3888
RightArm  4.26073 -8.58247 -2.56825
RightForeArm  41.9571 9.76205 11.0045
RightHand  0.82603 3.66138 10.3056
LeftUpLeg  14.0077 9.80065 0.75438
LeftLeg  15.0045 4.83396 0.848996
LeftFoot  -24.5802 -0.599722 -6.43388
LeftToes  2.15783e-011 -7.56106e-012 -8.20802e-012
1325
root  -28.1955 37.9266 0.220969 0.803126 3.12674 -0.998138
RightUpLeg  -24.545 -16.1697 -3.03656
RightLeg  24.8575 -5.17323 -2.8317
RightFoot  0.290596 -0.621208 6.11181
RightToes  4.71047e-010 1.2921e-014 -6.02303e-014
Spine  5.73392 -4.00121 5.47081
Spine1  1.70342 -4.1164 0.643038
HEad  9.16042 -13.328 -6.20951
LeftShoulder1  1.57288 -0.547546 -32.7753
LeftArm  22.6728 7.81942 -32.245
LeftForeArm  -4.10348 -18.1233 -9.29201
LeftHand  0.100357 -0.188223 -2.0846
RightShoulder  0.0908162 -3.10186 17.3121
RightArm  -5.43381 -5.72755 -3.0582
RightForeArm  52.2063 4.95184 11.0762
RightHand  0.653516 4.0423 7.75474
LeftUpLeg  12.8652 12.6524 3.191
LeftLeg  19.2881 3.80797 1.77948
LeftFoot  -22.3207 -0.959415 -11.3427
LeftToes  2.15783e-011 -7.56106e-012 -8.20802e-012
1326
root  -28.4124 38.0622 1.18892 1.37051 2.16116 -1.66913
RightUpLeg  -23.6269 -15.2445 -2.08293
RightLeg  24.9137 -4.92208 -2.71344
RightFoot  -1.40507 -0.587298 6.6377
RightToes  4.71047e-010 1.2921e-014 -6.02303e-014
Spine  6.39962 -3.51082 6.72644
Spine1  0.791482 -3.53089 1.34344
HEad  9.86599 -14.9806 -6.42199
LeftShoulder1  1.52403 -0.452909 -32.4687
LeftArm  16.9981 10.5346 -31.4029
LeftForeArm  -0.908976 -13.8203 -12.8104
LeftHand  0.103381 0.39374 -2.47788
RightShoulder  0.977318 0.00373315 21.6921
RightArm  -12.2545 -1.56615 -3.19909
RightForeArm  58.9039 1.60311 9.23999
RightHand  0.667364 4.32335 7.67565
LeftUpLeg  9.64969 14.7886 4.95889
LeftLeg  26.6242 5.08474 3.10785
LeftFoot  -17.445 -0.718976 -15.3589
LeftToes  2.15783e-011 -7.56106e-012 -8.20802e-012
